# xmcd CD database file
#
# Track frame offsets:
#	150
#	23220
#	46395
#	72042
#	91083
#	108904
#	128453
#	149081
#	169911
#	191089
#	212856
#	233239
#	252606
#	271366
#	285147
#	307578
#
# Disc length: 4416 seconds
#
# Revision: 3
# Processed by: cddbd v1.4PL0 Copyright (c) Steve Scherf et al.
# Submitted via: NeoAudio 1.5.6
#
DISCID=df113e10
DTITLE=Celine Dion - Gold - A Tribute Collection
DYEAR=2000
DGENRE=Ballad
TTITLE0=My Heart Will Go On (Love Theme from Titanic)
TTITLE1=All by Myself
TTITLE2=It's All Coming Back to Me Now
TTITLE3=Immortality (feat. Bee Gees)
TTITLE4=Beauty and the Beast (with Peabo Bryson)
TTITLE5=Think Twice
TTITLE6=Because You Loved Me
TTITLE7=Where Does My Heart Beat Now
TTITLE8=The Power of Love
TTITLE9=Tell Him (with Barabara Streisand)
TTITLE10=The Power of the Dream
TTITLE11=Falling into You
TTITLE12=Love Doesn't Ask Why
TTITLE13=Ne partez pas sans moi
TTITLE14=Just Walk Away
TTITLE15=Let's Talk about Love
EXTD=YEAR: 2000
EXTT0=
EXTT1=
EXTT2=
EXTT3=
EXTT4=
EXTT5=
EXTT6=
EXTT7=
EXTT8=
EXTT9=
EXTT10=
EXTT11=
EXTT12=
EXTT13=
EXTT14=
EXTT15=
PLAYORDER=
